<?xml version="1.0" encoding="utf-8"?>
<!-- Generator: Adobe Illustrator 15.0.0, SVG Export Plug-In . SVG Version: 6.00 Build 0)  -->
<!DOCTYPE svg PUBLIC "-//W3C//DTD SVG 1.1//EN" "http://www.w3.org/Graphics/SVG/1.1/DTD/svg11.dtd">
<svg version="1.1" id="Calque_1" xmlns="http://www.w3.org/2000/svg" xmlns:xlink="http://www.w3.org/1999/xlink" x="0px" y="0px"
	 width="167.1px" height="283.5px" viewBox="0 0 167.1 283.5" enable-background="new 0 0 167.1 283.5" xml:space="preserve">
<g>
	<path fill-rule="evenodd" clip-rule="evenodd" fill="#F29928" d="M52.7,0c6,0,11.7,0,17.8,0c-2.1,7.5,4.1,16.9-1.6,18
		c-7.6,2.7-8.7-13.8-16.4-16.4C51.9,1.5,52.5,0.6,52.7,0z"/>
	<path fill-rule="evenodd" clip-rule="evenodd" fill="#7FBA00" d="M75.4,0c19.7,0,39.3,0,59,0c1.3,0.3,2.1,1.3,1.6,1.6
		c-16.1,10.8-38.8,11-60.6,13.1C75.4,9.8,75.4,4.9,75.4,0z"/>
	<path fill-rule="evenodd" clip-rule="evenodd" fill="#F29928" d="M165.5,68.8c-13.1-6.6-25.4-13.9-37.7-21.3
		C123,33.7,114.4,23.8,101.6,18c11.4-5,26.5-6.3,37.7-11.5C156.1,19.2,165.7,39.2,165.5,68.8z"/>
	<path fill-rule="evenodd" clip-rule="evenodd" fill="#00A4EF" d="M165.5,73.7c-0.3,12.9-3,23.3-8.2,31.1c-16-0.2-26.8,4.9-42.6,4.9
		c9.5-12.6,18.4-33.6,13.1-55.7C141.5,59.5,151.3,68.8,165.5,73.7z"/>
	<path fill-rule="evenodd" clip-rule="evenodd" fill="#F29928" d="M155.7,109.8c-7.7,14.1-16.7,27-26.2,39.3
		c-10.2-4.5-16.8-12.7-26.2-18C106.8,110.1,134.3,113,155.7,109.8z"/>
	<path fill-rule="evenodd" clip-rule="evenodd" fill="#FFBA02" d="M124.5,152.4c-10.5,2.8-20.3-9.2-32.8-9.8
		C99,123.9,114.4,148.8,124.5,152.4z"/>
	<path fill-rule="evenodd" clip-rule="evenodd" fill="#F29928" d="M119.6,162.2c-13.5-1.8-25.4-5.2-39.3-6.6
		C86.8,138.5,110.9,153.2,119.6,162.2z"/>
	<path fill-rule="evenodd" clip-rule="evenodd" fill="#F29928" d="M55.7,191.7c-0.5-6.5-0.1-12.1,3.3-14.7c2.2,0,3.3,2,3.3,3.3
		c0,17.5,11.6,37.1-3.3,45.9C56.2,216.4,57.2,202.8,55.7,191.7z"/>
	<path fill-rule="evenodd" clip-rule="evenodd" fill="#7FBA00" d="M49.2,185.2c17,52.6-13.3,78.7-49.2,91.8
		C5,234.9,34.1,217.1,49.2,185.2z"/>
	<path fill-rule="evenodd" clip-rule="evenodd" fill="#F29928" d="M1.6,283.5c11.8-8.5,24.5-15.9,37.7-22.9
		c12,5.5,19.8,15.1,29.5,22.9C46.4,283.5,24,283.5,1.6,283.5z"/>
	<path fill-rule="evenodd" clip-rule="evenodd" fill="#00A4EF" d="M75.4,283.5c-5.6-8.6-17.4-11-21.3-21.3c6,0,12,0,18,0
		c4.7,7.3,10.2,13.8,14.7,21.3C83,283.5,79.2,283.5,75.4,283.5z"/>
	<path fill-rule="evenodd" clip-rule="evenodd" fill="#F29928" d="M91.8,283.5c-3.8-7.1-8.2-13.7-13.1-19.7
		c2.3-3.7,11.4-0.6,16.4-1.6c2.1,6.6,4.5,13,4.9,21.3C97.2,283.5,94.5,283.5,91.8,283.5z"/>
	<path fill-rule="evenodd" clip-rule="evenodd" fill="#F29928" d="M132.7,262.2c-12.3,3,26.5,8.7,34.4,9.8c0-2.7,0-5.5,0-8.2
		C158.9,260,143.7,263.2,132.7,262.2z"/>
	<path fill-rule="evenodd" clip-rule="evenodd" fill="#FFBA02" d="M104.9,283.5c0.9-8.5-3.1-12.1-3.3-19.7
		c22.3,5,46.5,8.2,65.5,16.4c0,1.1,0,2.2,0,3.3C146.4,283.5,125.6,283.5,104.9,283.5z"/>
	<path fill-rule="evenodd" clip-rule="evenodd" fill="#F29928" d="M13.1,36C9.9,48.3,2.9,64.9,4.9,77c2.4,8.1,24,5.4,31.1,3.3
		c0.9-14.9,5.7-26,9.8-37.7C34.3,41.1,24.7,37.5,13.1,36z"/>
	<path fill-rule="evenodd" clip-rule="evenodd" fill="#FE351E" d="M73.7,211.4c-6.2-11.2-7-28-8.2-44.2c3.4-2,6.2-4.8,8.2-8.2
		c13.4,2.5,26.4,5.3,41,6.6C110.7,175.7,73.7,210.8,73.7,211.4z"/>
	<path fill-rule="evenodd" clip-rule="evenodd" fill="#F29928" d="M62.3,180.2c0,0,0-4.2-3.3-3.3c-3.5,1.1-3.8,8.2-3.3,14.7"/>
	<path fill-rule="evenodd" clip-rule="evenodd" fill="#FE351E" d="M37.7,0c3.3,0,6.6,0,9.8,0c3.8,8.8,10.9,14.2,14.7,22.9
		C55,26.1,53.6,35,45.9,37.7c-10.5-2.6-23.3-2.9-31.1-8.2C21.1,18.4,28.2,8,37.7,0z"/>
</g>
</svg>
